PathFileType  4	(X/Y/Z) C:\Users\antoi\Documents\MyRepositories\mobilecap\ResultsAnalysis
DataRate	CameraRate	NumFrames	NumMarkers	Units	OrigDataRate	OrigDataStartFrame	OrigNumFrames
100.0	100.0	6	51	mm	100.0	325	371
Frame#	Time	r_knee			r_shank_antsup			r_ankle			r_calc			r_5meta			r_toe			L_knee			L_shank_antsup			L_ankle			L_calc			L_5meta			L_toe			r_sh2			r_sh3			r_sh4			L_sh2			L_sh3			r_thigh1			r_thigh2			r_thigh3			r_thigh4			r_thigh5			L_thigh1			L_thigh2			L_thigh3			L_thigh4			r.ASIS			r.PSIS			L.ASIS			L.PSIS			C7			R_Shoulder			L_Shoulder			R_Sternum			L_Sternum			R_humerus			R_elbow_med			R_elbow_lat			R_forearm			R_wrist_radius			R_wrist_ulna			L_humerus			L_elbow_med			L_elbow_lat			L_forearm			L_wrist_radius			L_wrist_ulna			R_HJC			L_HJC			R_HJC_reg			L_HJC_reg			
		X1	Y1	Z1	X2	Y2	Z2	X3	Y3	Z3	X4	Y4	Z4	X5	Y5	Z5	X6	Y6	Z6	X7	Y7	Z7	X8	Y8	Z8	X9	Y9	Z9	X10	Y10	Z10	X11	Y11	Z11	X12	Y12	Z12	X13	Y13	Z13	X14	Y14	Z14	X15	Y15	Z15	X16	Y16	Z16	X17	Y17	Z17	X18	Y18	Z18	X19	Y19	Z19	X20	Y20	Z20	X21	Y21	Z21	X22	Y22	Z22	X23	Y23	Z23	X24	Y24	Z24	X25	Y25	Z25	X26	Y26	Z26	X27	Y27	Z27	X28	Y28	Z28	X29	Y29	Z29	X30	Y30	Z30	X31	Y31	Z31	X32	Y32	Z32	X33	Y33	Z33	X34	Y34	Z34	X35	Y35	Z35	X36	Y36	Z36	X37	Y37	Z37	X38	Y38	Z38	X39	Y39	Z39	X40	Y40	Z40	X41	Y41	Z41	X42	Y42	Z42	X43	Y43	Z43	X44	Y44	Z44	X45	Y45	Z45	X46	Y46	Z46	X47	Y47	Z47	X48	Y48	Z48	X49	Y49	Z49	X50	Y50	Z50	X51	Y51	Z51	

325	3.24000000	-79.23393	430.40157	-390.61706	-60.85843	312.78518	-386.02370	-238.22505	100.47943	-386.33138	-292.77710	54.90981	-433.84743	-148.06292	39.39985	-327.89006	-103.69868	56.16597	-364.27016	-93.11919	428.05382	-832.10355	-58.05477	314.35156	-798.18990	-250.62935	93.09487	-814.11754	-302.16264	54.22433	-767.42960	-147.90812	35.81123	-855.40913	-101.55175	52.07297	-806.53216	-116.65729	215.51576	-390.87934	-118.73376	342.73470	-349.09746	-184.95806	253.72610	-361.43739	-108.28991	359.71642	-856.91967	-169.68769	253.92543	-862.33884	-150.28152	719.37767	-432.45603	-91.84560	630.73022	-413.24845	-123.15575	587.15639	-372.66261	-243.13812	665.56752	-399.50244	-177.10282	572.31930	-375.84744	-180.82431	704.07545	-818.70229	-96.17027	599.27469	-832.36751	-278.12552	644.83803	-826.00831	-186.02324	537.55186	-843.27023	-155.81705	793.69650	-502.04675	-317.33289	898.15131	-555.95529	-176.14577	798.30838	-747.60609	-333.15850	899.72221	-673.35939	-150.94202	1311.62255	-609.78230	-103.42815	1271.61442	-464.04205	-113.91798	1288.21161	-765.02041	-38.17034	1234.92106	-597.78484	-39.34967	1230.64047	-640.81478	-132.16508	1156.60685	-387.13813	-240.00714	972.73152	-418.76284	-237.96838	994.60677	-346.77081	-200.89208	882.50059	-291.53033	-177.30617	784.93992	-266.73653	-213.08468	783.43403	-253.68704	-160.68208	1171.77190	-865.45784	-257.58877	994.31652	-849.83505	-276.84585	1038.02263	-908.13344	-282.22818	970.88340	-986.04009	-304.33507	854.24752	-1046.77024	-335.39251	863.76929	-1047.00800	-266.71219	757.98398	-520.49558	-279.37931	755.48515	-709.43363	-246.86420	755.66294	-525.03564	-268.58850	757.81772	-686.21035	
326	3.25000000	-57.21790	430.67353	-393.36160	-48.67829	312.79419	-387.67649	-233.93522	99.96888	-387.00008	-291.62943	56.18719	-435.03386	-147.16189	40.40699	-328.66635	-101.78936	56.00893	-364.72547	-74.27373	430.51048	-830.24769	-47.86351	314.19407	-800.81552	-246.78378	95.80673	-814.29140	-301.47845	56.00899	-767.25950	-147.55344	35.92005	-855.25738	-100.23822	51.56181	-807.02859	-110.44939	218.10899	-390.11439	-104.55863	347.89923	-350.65368	-176.14892	261.85878	-361.03427	-98.21893	364.70752	-855.97249	-162.56252	261.85688	-868.02066	-157.46217	714.10430	-434.21379	-92.32024	630.71144	-418.44620	-117.78437	585.76973	-374.90934	-244.98222	653.33063	-399.73183	-170.26064	565.86469	-376.18503	-189.69093	694.53650	-819.75391	-98.02363	596.23015	-832.22943	-282.09560	628.16976	-823.70979	-182.76290	526.83031	-839.45035	-163.65838	775.94209	-503.01954	-324.39511	882.92109	-556.31113	-186.65595	781.04553	-750.28112	-340.90120	883.87444	-672.59902	-145.41795	1291.76098	-609.61351	-95.25004	1249.89724	-464.32300	-106.82088	1266.67816	-765.48293	-35.41359	1209.72454	-599.84350	-35.34743	1206.62530	-640.64342	-125.08334	1135.48017	-387.72822	-235.93738	953.70718	-417.76763	-232.94825	975.40566	-345.50663	-195.97645	862.58115	-290.80843	-172.81153	764.97219	-265.91293	-208.37830	763.65136	-252.76300	-156.89379	1153.28972	-866.29248	-253.33746	975.17907	-851.60440	-272.45867	1018.88212	-909.33279	-276.60204	951.75447	-988.09631	-295.95357	835.65552	-1050.13717	-327.28101	844.08535	-1050.02298	-275.10018	741.73824	-521.07980	-289.88298	739.44594	-709.87090	-256.11976	739.65542	-525.31692	-279.14658	740.99139	-687.61218	
327	3.26000000	-44.00883	429.66413	-395.15465	-42.75648	310.06214	-390.17667	-232.87002	98.47300	-388.37242	-291.22975	56.46744	-436.35320	-146.80828	41.26443	-329.50895	-101.15950	56.31443	-365.55255	-59.48914	432.04811	-828.70466	-41.75503	312.81606	-800.74696	-245.09978	96.48507	-813.42024	-301.02253	56.61087	-766.36959	-147.47967	36.08067	-855.13892	-99.86079	51.37562	-807.09168	-105.88452	215.54324	-392.73639	-97.02796	344.68514	-350.25472	-169.66661	260.05470	-361.07310	-91.68405	364.90936	-855.22393	-157.83654	263.16134	-868.36988	-166.93153	708.44719	-436.91786	-96.02926	630.03984	-422.38980	-116.52048	585.52900	-375.72852	-248.99255	643.04966	-398.22779	-167.49696	561.26433	-375.08193	-199.80761	685.21897	-819.51421	-101.98643	593.69703	-832.78511	-286.84592	612.65742	-822.59661	-181.34746	517.80893	-837.91403	-170.03774	759.77022	-504.44409	-331.31310	867.74178	-556.93628	-195.66679	765.03489	-751.30529	-347.60363	868.59054	-672.06066	-140.73885	1273.12874	-610.06164	-87.08409	1228.47763	-465.26140	-99.78496	1245.62270	-765.86610	-33.71279	1185.04991	-602.92124	-32.68851	1183.88826	-641.46307	-117.87960	1115.04277	-389.03566	-231.76782	935.41407	-416.36454	-227.58600	957.50708	-343.56092	-190.27319	844.03062	-289.51526	-167.19652	746.37160	-264.48915	-202.54557	745.21854	-251.13089	-151.96764	1135.23346	-866.90550	-249.41984	957.18601	-853.98067	-267.69466	1001.06419	-911.21618	-270.30226	933.93262	-991.03223	-286.55192	818.23972	-1054.46920	-318.10112	825.68951	-1054.29441	-282.05081	726.24348	-521.50705	-298.43682	723.96419	-710.15809	-263.91624	723.89766	-526.57146	-286.87297	725.09359	-688.79977	
328	3.27000000	-43.21570	425.87053	-395.41683	-40.53956	303.77043	-393.16840	-233.40358	98.03305	-389.70651	-291.23095	55.88426	-436.76631	-146.92687	41.60777	-329.90433	-101.48318	56.53761	-366.21545	-55.61938	429.52625	-828.34767	-39.14107	308.54663	-798.29447	-245.01040	95.68094	-811.96188	-300.92492	55.90692	-765.30179	-147.54627	36.22465	-854.97172	-100.12168	51.35387	-806.76656	-103.46362	208.99509	-397.36425	-93.76882	335.89399	-350.29988	-166.10056	251.60341	-362.22994	-87.13475	359.57362	-854.87535	-154.99441	258.24993	-865.58098	-176.58920	701.49096	-438.19603	-101.60660	627.10912	-423.53535	-119.05690	582.08757	-375.98095	-254.29692	632.34083	-396.04169	-168.72714	555.03303	-374.80705	-210.09115	675.37382	-819.43144	-107.40264	589.65632	-833.97493	-292.71303	597.61823	-822.00387	-182.21227	509.04275	-837.03486	-174.97353	746.70107	-504.26460	-337.50881	853.65114	-557.04184	-202.78682	750.63626	-751.05696	-353.09522	854.81788	-671.52438	-136.97178	1255.65277	-610.77529	-80.21520	1207.80355	-467.10453	-93.33565	1225.63671	-765.66681	-31.30130	1162.81509	-605.42189	-30.64082	1163.15577	-642.85454	-110.78161	1095.26282	-390.73625	-227.79482	918.32252	-414.28476	-221.71621	940.26001	-341.29171	-184.03548	826.62664	-287.60431	-160.55405	729.03747	-262.61464	-195.68922	727.98848	-248.73350	-146.17440	1117.27491	-867.42456	-245.49111	940.52721	-856.86237	-262.68128	984.24354	-914.01452	-263.22378	917.40732	-994.96297	-276.19892	801.87556	-1059.42802	-307.82775	808.80644	-1060.00699	-287.42581	712.85915	-520.77694	-304.76025	709.69670	-709.33031	-270.05983	708.86920	-526.91767	-292.17520	710.52421	-689.35008	
329	3.28000000	-48.59695	419.52061	-395.37844	-39.88779	297.32687	-395.37655	-234.10168	97.36704	-389.67172	-291.53469	54.78918	-436.18816	-147.30709	41.44557	-329.73928	-102.19395	56.58052	-366.27898	-60.24230	423.15127	-828.75597	-38.76636	302.53748	-795.56203	-245.19073	94.23010	-810.90229	-301.05007	54.59551	-764.39456	-147.66689	36.32387	-854.83424	-100.48922	51.36015	-806.38334	-102.94619	202.76346	-400.18945	-92.35766	327.84741	-350.24454	-165.19399	243.81676	-362.57521	-84.55239	351.71300	-855.05676	-153.02339	250.78774	-863.91347	-185.01685	694.11824	-436.98528	-107.63489	622.19243	-422.71266	-123.25348	575.30469	-376.05217	-259.80879	621.17111	-394.55339	-172.30123	547.15090	-375.45584	-219.32185	665.60701	-819.75169	-113.42435	583.63058	-834.67274	-298.88732	584.29669	-821.44464	-185.28858	500.03796	-835.13546	-180.03764	735.90798	-502.84257	-342.54285	841.36267	-556.53272	-208.02725	738.18812	-750.59905	-357.53188	842.90426	-671.04372	-133.70403	1239.33063	-611.26963	-75.14630	1188.95368	-469.05724	-88.24626	1207.58030	-765.28084	-28.18850	1143.93212	-606.25264	-28.59262	1144.75414	-643.96910	-103.98733	1076.60894	-392.58233	-224.44361	902.23789	-411.20356	-215.49586	923.64136	-338.63296	-177.27703	810.24232	-285.24874	-152.98947	712.98189	-260.23614	-187.83438	711.86265	-245.67377	-139.93407	1099.58293	-867.65185	-240.77189	924.98139	-860.80224	-257.36265	968.26688	-918.10447	-255.18376	902.05002	-999.86916	-265.10472	786.58281	-1064.77533	-296.63640	793.32532	-1066.74532	-292.29205	701.42372	-519.66271	-309.58724	697.40035	-708.20806	-275.41136	695.83500	-526.26692	-296.76790	698.03114	-689.42628	
330	3.29000000	-53.11797	413.51043	-395.52447	-39.69970	294.05927	-395.94885	-234.76462	96.87353	-388.35516	-292.00357	54.17965	-435.52291	-147.69280	41.21530	-329.34231	-102.82980	56.66128	-365.99602	-66.50432	415.71932	-828.87981	-39.38825	298.16527	-793.31702	-245.40417	93.16451	-810.39969	-301.23240	53.62255	-763.96991	-147.82437	36.35572	-854.81154	-100.78824	51.37340	-806.12133	-102.90815	199.78113	-400.23136	-91.91800	324.32128	-349.87198	-165.18264	240.32122	-361.68448	-84.34348	345.59706	-854.83530	-151.61982	244.38204	-863.12629	-192.12696	686.54673	-434.20380	-113.25453	615.87285	-420.76339	-127.84281	567.11265	-375.90264	-265.19276	610.38784	-394.49562	-176.88655	538.61186	-376.10374	-226.41252	656.82502	-820.11471	-118.83285	576.71962	-834.19451	-304.11268	573.97026	-820.43420	-189.58588	491.63971	-832.72553	-185.51332	725.77627	-500.99849	-346.62030	830.98482	-556.01760	-212.19324	727.26845	-749.61767	-361.36558	832.53138	-670.86742	-130.77020	1224.20583	-611.49947	-71.37778	1172.38813	-470.31159	-84.96988	1191.77951	-765.47218	-25.63542	1127.59956	-606.26966	-26.82463	1128.46987	-644.84835	-97.77846	1059.86397	-394.46157	-221.38257	886.92038	-407.24043	-209.13902	908.17630	-335.48496	-170.03717	795.10505	-282.73853	-144.60270	698.37426	-257.46851	-179.05601	696.90637	-242.34531	-133.42598	1082.44817	-867.49609	-235.40694	910.25160	-865.99626	-251.55434	953.30638	-923.40450	-246.18687	887.80172	-1005.36372	-253.57086	772.57484	-1070.54979	-284.90467	779.19804	-1074.00814	-297.44926	691.32963	-518.63046	-313.85437	686.82007	-707.24453	-280.55159	685.32216	-524.81353	-301.56572	687.52539	-688.48536	
